<?xml version="1.0" encoding="UTF-8" standalone="no"?>
<!-- Created with Inkscape (http://www.inkscape.org/) -->

<svg
   xmlns:dc="http://purl.org/dc/elements/1.1/"
   xmlns:cc="http://creativecommons.org/ns#"
   xmlns:rdf="http://www.w3.org/1999/02/22-rdf-syntax-ns#"
   xmlns:svg="http://www.w3.org/2000/svg"
   xmlns="http://www.w3.org/2000/svg"
   xmlns:sodipodi="http://sodipodi.sourceforge.net/DTD/sodipodi-0.dtd"
   xmlns:inkscape="http://www.inkscape.org/namespaces/inkscape"
   width="40mm"
   height="20mm"
   viewBox="0 0 141.73228 70.86614"
   id="svg4175"
   version="1.1"
   inkscape:version="0.91 r13725"
   sodipodi:docname="main.svg">
  <defs
     id="defs4177" />
  <sodipodi:namedview
     id="base"
     pagecolor="#ffffff"
     bordercolor="#666666"
     borderopacity="1.0"
     inkscape:pageopacity="0.0"
     inkscape:pageshadow="2"
     inkscape:zoom="3.285277"
     inkscape:cx="57.616165"
     inkscape:cy="57.55034"
     inkscape:document-units="px"
     inkscape:current-layer="layer1"
     showgrid="false"
     showguides="true"
     inkscape:guide-bbox="true"
     inkscape:window-width="1920"
     inkscape:window-height="1016"
     inkscape:window-x="1366"
     inkscape:window-y="27"
     inkscape:window-maximized="1">
    <sodipodi:guide
       position="149.64286,985.00002"
       orientation="0,1"
       id="guide5671" />
  </sodipodi:namedview>
  <metadata
     id="metadata4180">
    <rdf:RDF>
      <cc:Work
         rdf:about="">
        <dc:format>image/svg+xml</dc:format>
        <dc:type
           rdf:resource="http://purl.org/dc/dcmitype/StillImage" />
        <dc:title></dc:title>
      </cc:Work>
    </rdf:RDF>
  </metadata>
  <g
     inkscape:groupmode="layer"
     id="layer2"
     inkscape:label="uvas"
     style="opacity:0.4"
     transform="translate(0,-981.49606)" />
  <g
     inkscape:label="Capa 1"
     inkscape:groupmode="layer"
     id="layer1"
     transform="translate(0,-981.49606)">
    <g
       transform="matrix(0.64285714,0,0,0.64285714,180.57142,32.219345)"
       id="g35" />
    <g
       transform="matrix(0.64285714,0,0,0.64285714,180.57142,32.219345)"
       id="g37" />
    <g
       transform="matrix(0.64285714,0,0,0.64285714,180.57142,32.219345)"
       id="g39" />
    <g
       transform="matrix(0.64285714,0,0,0.64285714,180.57142,32.219345)"
       id="g41" />
    <g
       transform="matrix(0.64285714,0,0,0.64285714,180.57142,32.219345)"
       id="g43" />
    <g
       transform="matrix(0.64285714,0,0,0.64285714,180.57142,32.219345)"
       id="g45" />
    <g
       transform="matrix(0.64285714,0,0,0.64285714,180.57142,32.219345)"
       id="g47" />
    <g
       transform="matrix(0.64285714,0,0,0.64285714,180.57142,32.219345)"
       id="g49" />
    <g
       transform="matrix(0.64285714,0,0,0.64285714,180.57142,32.219345)"
       id="g51" />
    <g
       transform="matrix(0.64285714,0,0,0.64285714,180.57142,32.219345)"
       id="g53" />
    <g
       transform="matrix(0.64285714,0,0,0.64285714,180.57142,32.219345)"
       id="g55" />
    <g
       transform="matrix(0.64285714,0,0,0.64285714,180.57142,32.219345)"
       id="g57" />
    <g
       transform="matrix(0.64285714,0,0,0.64285714,180.57142,32.219345)"
       id="g59" />
    <g
       transform="matrix(0.64285714,0,0,0.64285714,180.57142,32.219345)"
       id="g61" />
    <g
       transform="matrix(0.64285714,0,0,0.64285714,180.57142,32.219345)"
       id="g63" />
    <g
       transform="translate(503.67379,121.03561)"
       id="g107" />
    <g
       transform="translate(503.67379,121.03561)"
       id="g109" />
    <g
       transform="translate(503.67379,121.03561)"
       id="g111" />
    <g
       transform="translate(503.67379,121.03561)"
       id="g113" />
    <g
       transform="translate(503.67379,121.03561)"
       id="g115" />
    <g
       transform="translate(503.67379,121.03561)"
       id="g117" />
    <g
       transform="translate(503.67379,121.03561)"
       id="g119" />
    <g
       transform="translate(503.67379,121.03561)"
       id="g121" />
    <g
       transform="translate(503.67379,121.03561)"
       id="g123" />
    <g
       transform="translate(503.67379,121.03561)"
       id="g125" />
    <g
       transform="translate(503.67379,121.03561)"
       id="g127" />
    <g
       transform="translate(503.67379,121.03561)"
       id="g129" />
    <g
       transform="translate(503.67379,121.03561)"
       id="g131" />
    <g
       transform="translate(503.67379,121.03561)"
       id="g133" />
    <g
       transform="translate(503.67379,121.03561)"
       id="g135" />
    <rect
       style="opacity:1;fill:none;fill-opacity:1;stroke:#191126;stroke-width:4.16467428;stroke-miterlimit:4;stroke-dasharray:none;stroke-opacity:1"
       id="rect4389"
       width="138.04962"
       height="67.156754"
       x="1.9573375"
       y="983.69452" />
  </g>
</svg>
